<svg width="244" height="77" viewBox="0 0 244 77" fill="none" xmlns="http://www.w3.org/2000/svg">
<path d="M35.9248 61.8764L11.3104 30.8068V61.8764H0V11.6255H9.7477L34.2903 42.6951V11.6255H45.6725V61.8764H35.9248Z" fill="black"/>
<path d="M52.3555 44.1122C52.3555 33.4953 60.3944 25.7119 71.207 25.7119C81.5218 25.7119 90.5563 32.7192 90.2021 46.6623H62.8139C63.1681 50.2719 65.9443 53.4577 71.7766 53.4577C74.9069 53.4577 77.7525 52.041 78.6069 50.1315H89.848C87.572 57.4911 80.1746 62.6579 71.2094 62.6579C60.1814 62.6554 52.3555 54.8695 52.3555 44.1122ZM63.0987 39.8669H78.3221C77.1829 35.6192 73.6984 34.2049 70.9246 34.2049C66.6551 34.2049 64.0225 36.6811 63.0987 39.8669Z" fill="black"/>
<path d="M99.8769 48.9229V35.7583H92.7617V26.4867H99.8769V16.6484H110.618V26.4867H120.578V35.7583H110.618V46.7276C110.618 50.9728 112.396 52.7444 116.665 52.7444C118.302 52.7444 119.439 52.6039 120.578 52.1062V61.5897C118.941 62.085 117.022 62.2968 114.176 62.2968C106.281 62.2993 99.8769 57.9826 99.8769 48.9229Z" fill="black"/>
<path d="M124.703 44.1837C124.703 33.9216 132.598 25.7119 143.413 25.7119C153.515 25.7119 159.845 32.0121 161.767 40.2907H150.67C149.318 37.4597 147.183 35.3359 143.413 35.3359C138.862 35.3359 135.518 38.5906 135.518 44.1837C135.518 49.7767 138.862 53.0315 143.413 53.0315C147.183 53.0315 149.318 50.9076 150.67 48.0766H161.767C159.848 56.3577 153.515 62.6579 143.413 62.6579C132.601 62.6554 124.703 54.4457 124.703 44.1837Z" fill="black"/>
<path d="M167.953 8.79248H178.696V61.8744H167.953V8.79248Z" fill="black"/>
<path d="M198.259 26.4888H187.516V61.8776H198.259V26.4888Z" fill="black"/>
<path d="M207.078 76.6676V26.4856H217.821V30.0238C219.174 28.0428 222.802 25.707 227.495 25.707C236.814 25.707 243.999 34.2 243.999 44.1788C243.999 54.1575 236.814 62.6505 227.495 62.6505C222.799 62.6505 219.171 60.3148 217.821 58.3338V76.6651H207.078V76.6676ZM233.186 44.1812C233.186 39.0859 229.914 35.4049 225.075 35.4049C220.239 35.4049 216.965 39.0859 216.965 44.1812C216.965 49.2766 220.239 52.9576 225.075 52.9576C229.914 52.9576 233.186 49.2766 233.186 44.1812Z" fill="black"/>
<path d="M204.326 10.9249L195.921 16.3848L187.516 21.8473V10.9249V0L195.921 5.46244L204.326 10.9249Z" fill="#05E5AF"/>
</svg>
